<svg xmlns="http://www.w3.org/2000/svg" width="0" height="0" style="display: none;">
  <defs>
    <!-- Czech Traditional Brewery -->
    <symbol id="icon-czech-traditional" viewBox="0 0 24 24">
      <path fill="currentColor" d="M12 2L8 6v2h8V6l-4-4z"/>
      <rect x="6" y="8" width="12" height="10" rx="1" fill="currentColor"/>
      <rect x="8" y="10" width="8" height="2" fill="none" stroke="currentColor" stroke-width="0.5"/>
      <rect x="8" y="13" width="8" height="2" fill="none" stroke="currentColor" stroke-width="0.5"/>
      <circle cx="10" cy="20" r="1" fill="currentColor"/>
      <circle cx="14" cy="20" r="1" fill="currentColor"/>
    </symbol>

    <!-- Craft/Artisanal Brewery -->
    <symbol id="icon-craft-brewery" viewBox="0 0 24 24">
      <path fill="currentColor" d="M12 2c-1.1 0-2 .9-2 2v2h4V4c0-1.1-.9-2-2-2z"/>
      <path fill="currentColor" d="M8 6v12c0 1.1.9 2 2 2h4c1.1 0 2-.9 2-2V6H8zm2 3h4v2h-4V9zm0 4h4v2h-4v-2z"/>
      <circle cx="6" cy="10" r="1.5" fill="currentColor"/>
      <circle cx="18" cy="14" r="1.5" fill="currentColor"/>
      <circle cx="6" cy="16" r="1" fill="currentColor"/>
      <circle cx="18" cy="8" r="1" fill="currentColor"/>
    </symbol>

    <!-- International Brewery -->
    <symbol id="icon-international" viewBox="0 0 24 24">
      <circle cx="12" cy="12" r="10" fill="none" stroke="currentColor" stroke-width="2"/>
      <path fill="none" stroke="currentColor" stroke-width="1.5" d="M2 12h20M12 2a15.3 15.3 0 0 1 4 10 15.3 15.3 0 0 1-4 10 15.3 15.3 0 0 1-4-10 15.3 15.3 0 0 1 4-10z"/>
      <rect x="10" y="8" width="4" height="8" rx="1" fill="currentColor"/>
      <rect x="11" y="6" width="2" height="2" fill="currentColor"/>
    </symbol>

    <!-- Regional - Moravian -->
    <symbol id="icon-moravian" viewBox="0 0 24 24">
      <path fill="currentColor" d="M12 2l6 4v12l-6 4-6-4V6l6-4z"/>
      <rect x="10" y="8" width="4" height="6" fill="none" stroke="white" stroke-width="1"/>
      <circle cx="12" cy="11" r="1" fill="white"/>
      <path fill="white" d="M10 16h4l-2 2-2-2z"/>
    </symbol>

    <!-- Regional - Bohemian -->
    <symbol id="icon-bohemian" viewBox="0 0 24 24">
      <path fill="currentColor" d="M12 2L6 8v10l6 4 6-4V8l-6-6z"/>
      <path fill="white" d="M12 6l-3 3v6l3 2 3-2V9l-3-3z"/>
      <circle cx="12" cy="10" r="1" fill="currentColor"/>
      <circle cx="12" cy="13" r="1" fill="currentColor"/>
    </symbol>

    <!-- Beer Style - Lager -->
    <symbol id="icon-lager" viewBox="0 0 24 24">
      <path fill="currentColor" d="M8 4c0-1.1.9-2 2-2h4c1.1 0 2 .9 2 2v2H8V4z"/>
      <rect x="7" y="6" width="10" height="12" rx="2" fill="currentColor"/>
      <rect x="9" y="8" width="6" height="8" fill="none" stroke="white" stroke-width="1"/>
      <path fill="white" d="M9 10h6v1H9v-1zm0 2h6v1H9v-1zm0 2h4v1H9v-1z"/>
    </symbol>

    <!-- Beer Style - Ale -->
    <symbol id="icon-ale" viewBox="0 0 24 24">
      <ellipse cx="12" cy="14" rx="5" ry="8" fill="currentColor"/>
      <ellipse cx="12" cy="8" rx="3" ry="2" fill="white" opacity="0.7"/>
      <circle cx="9" cy="12" r="0.5" fill="white" opacity="0.5"/>
      <circle cx="15" cy="15" r="0.5" fill="white" opacity="0.5"/>
      <circle cx="12" cy="18" r="0.5" fill="white" opacity="0.5"/>
    </symbol>

    <!-- Beer Style - Stout -->
    <symbol id="icon-stout" viewBox="0 0 24 24">
      <rect x="8" y="6" width="8" height="14" rx="1" fill="currentColor"/>
      <ellipse cx="12" cy="7" rx="3" ry="1" fill="white" opacity="0.9"/>
      <ellipse cx="12" cy="8" rx="2.5" ry="0.7" fill="white" opacity="0.6"/>
      <ellipse cx="12" cy="9" rx="2" ry="0.5" fill="white" opacity="0.3"/>
    </symbol>

    <!-- Microbrewery -->
    <symbol id="icon-micro" viewBox="0 0 24 24">
      <rect x="9" y="8" width="6" height="10" rx="1" fill="currentColor"/>
      <rect x="7" y="6" width="2" height="4" fill="currentColor"/>
      <rect x="15" y="6" width="2" height="4" fill="currentColor"/>
      <circle cx="12" cy="4" r="2" fill="currentColor"/>
      <rect x="10" y="12" width="4" height="2" fill="white"/>
      <circle cx="11" cy="15" r="0.5" fill="white"/>
      <circle cx="13" cy="15" r="0.5" fill="white"/>
    </symbol>

    <!-- Historical Brewery -->
    <symbol id="icon-historical" viewBox="0 0 24 24">
      <path fill="currentColor" d="M12 2L8 6h8l-4-4z"/>
      <rect x="6" y="6" width="12" height="12" fill="currentColor"/>
      <rect x="8" y="8" width="8" height="8" fill="none" stroke="white" stroke-width="1"/>
      <path fill="white" d="M10 10h4v2h-4v-2zm0 3h4v2h-4v-2z"/>
      <rect x="10" y="18" width="4" height="2" fill="currentColor"/>
    </symbol>
  </defs>
</svg>